<svg width="41" height="49" viewBox="0 0 41 49" fill="none" xmlns="http://www.w3.org/2000/svg">
<path fill-rule="evenodd" clip-rule="evenodd" d="M20.5 3.75C28.0939 3.75 34.25 9.90608 34.25 17.5C34.25 25.0939 28.0939 31.25 20.5 31.25C12.9061 31.25 6.75 25.0939 6.75 17.5C6.75 9.90608 12.9061 3.75 20.5 3.75ZM21.6679 26.9571C21.2774 26.5666 21.2774 25.9334 21.6679 25.5429L23.7108 23.5H14.875C14.3227 23.5 13.875 23.0523 13.875 22.5C13.875 21.9477 14.3227 21.5 14.875 21.5H23.7108L21.6679 19.4571C21.2774 19.0666 21.2774 18.4334 21.6679 18.0429C22.0584 17.6524 22.6916 17.6524 23.0821 18.0429L26.8321 21.7929C27.2226 22.1834 27.2226 22.8166 26.8321 23.2071L23.0821 26.9571C22.6916 27.3476 22.0584 27.3476 21.6679 26.9571ZM19.3321 9.45711C19.7226 9.06658 19.7226 8.43342 19.3321 8.04289C18.9416 7.65237 18.3084 7.65237 17.9179 8.04289L14.1679 11.7929C13.7774 12.1834 13.7774 12.8166 14.1679 13.2071L17.9179 16.9571C18.3084 17.3476 18.9416 17.3476 19.3321 16.9571C19.7226 16.5666 19.7226 15.9334 19.3321 15.5429L17.2892 13.5H26.125C26.6773 13.5 27.125 13.0523 27.125 12.5C27.125 11.9477 26.6773 11.5 26.125 11.5H17.2892L19.3321 9.45711Z" fill="#8E8E93"/>
<path d="M4.35938 46.1406C1.96875 46.1406 0.474609 44.4648 0.474609 41.7695C0.474609 39.0918 1.98633 37.4043 4.34766 37.4043C5.90039 37.4043 7.14258 38.1602 7.66992 39.4082C7.75195 39.5781 7.79297 39.7539 7.79297 39.9121C7.79297 40.2637 7.55859 40.4922 7.20703 40.4922C6.89648 40.4922 6.69141 40.3398 6.54492 40C6.15234 39.0566 5.32031 38.5527 4.34766 38.5527C2.8125 38.5527 1.81641 39.8125 1.81641 41.7695C1.81641 43.7441 2.80078 44.9922 4.35352 44.9922C5.38477 44.9922 6.17578 44.5527 6.56836 43.6387C6.70898 43.3281 6.87891 43.1992 7.16602 43.1992C7.52344 43.1992 7.76953 43.4453 7.76953 43.791C7.76953 43.9727 7.72266 44.1426 7.62891 44.3359C7.08398 45.4785 5.92969 46.1406 4.35938 46.1406ZM9.65039 46.1113C9.28125 46.1113 9.01758 45.8594 9.01758 45.4434V38.0898C9.01758 37.6914 9.25781 37.4336 9.64453 37.4336C10.0371 37.4336 10.2715 37.6914 10.2715 38.0898V40.8672H10.3008C10.6406 40.1465 11.3145 39.7305 12.252 39.7305C13.6055 39.7305 14.4141 40.6328 14.4141 42.0273V45.4434C14.4141 45.8594 14.1504 46.1113 13.7754 46.1113C13.4062 46.1113 13.1426 45.8594 13.1426 45.4434V42.2734C13.1426 41.3652 12.6855 40.8203 11.7949 40.8203C10.8574 40.8203 10.2832 41.4648 10.2832 42.4375V45.4434C10.2832 45.8594 10.0195 46.1113 9.65039 46.1113ZM17.4434 46.1055C16.2363 46.1055 15.3867 45.3555 15.3867 44.248C15.3867 43.1699 16.2188 42.5078 17.6777 42.4258L19.3711 42.3262V41.8516C19.3711 41.166 18.9082 40.7559 18.1348 40.7559C17.5254 40.7559 17.1211 40.9727 16.7695 41.5352C16.6406 41.7227 16.4766 41.8047 16.2539 41.8047C15.9375 41.8047 15.709 41.5938 15.709 41.2773C15.709 41.1484 15.7441 41.0078 15.8203 40.8672C16.1426 40.1699 17.0742 39.7246 18.1816 39.7246C19.6758 39.7246 20.6309 40.5156 20.6309 41.752V45.4727C20.6309 45.8711 20.3789 46.1113 20.0215 46.1113C19.6699 46.1113 19.4297 45.8828 19.418 45.5078V44.9863H19.3887C19.0312 45.6719 18.2461 46.1055 17.4434 46.1055ZM17.7891 45.1035C18.6738 45.1035 19.3711 44.4941 19.3711 43.6914V43.2051L17.8477 43.2988C17.0918 43.3516 16.6641 43.6855 16.6641 44.2129C16.6641 44.752 17.1152 45.1035 17.7891 45.1035ZM22.4941 46.1113C22.1191 46.1113 21.8613 45.8594 21.8613 45.4434V40.3633C21.8613 39.9766 22.0957 39.7246 22.4648 39.7246C22.8281 39.7246 23.0801 39.9766 23.0801 40.3691V40.8555H23.1094C23.4434 40.1523 24.0879 39.7305 25.0371 39.7305C26.3965 39.7305 27.1758 40.5977 27.1758 42.0098V45.4434C27.1758 45.8594 26.9121 46.1113 26.5371 46.1113C26.168 46.1113 25.9043 45.8594 25.9043 45.4434V42.2559C25.9043 41.3301 25.4707 40.8203 24.5918 40.8203C23.7012 40.8203 23.127 41.4531 23.127 42.4082V45.4434C23.127 45.8594 22.8633 46.1113 22.4941 46.1113ZM30.9844 48.3203C29.8652 48.3086 28.9805 47.875 28.5586 47.207C28.4766 47.0664 28.4414 46.9375 28.4414 46.791C28.4414 46.498 28.6582 46.2871 28.9805 46.2871C29.1738 46.2871 29.2969 46.3516 29.4668 46.5215C29.9707 47.0488 30.4043 47.2773 31.0078 47.2891C32.0391 47.3008 32.666 46.7148 32.666 45.8535V44.875H32.6367C32.291 45.543 31.5645 45.9824 30.6855 45.9824C29.1328 45.9824 28.125 44.7695 28.125 42.8652C28.125 40.9375 29.1211 39.7363 30.7148 39.7363C31.5879 39.7363 32.2676 40.1758 32.6426 40.873H32.666V40.375C32.666 39.9648 32.9414 39.7246 33.3047 39.7246C33.668 39.7246 33.9375 39.9648 33.9375 40.375V45.8301C33.9375 47.3535 32.8184 48.3379 30.9844 48.3203ZM31.0254 44.9512C32.0156 44.9512 32.6719 44.1426 32.6719 42.877C32.6719 41.6113 32.0156 40.7793 31.0254 40.7793C30.0527 40.7793 29.4199 41.5879 29.4199 42.8711C29.4199 44.1602 30.0527 44.9512 31.0254 44.9512ZM37.8574 46.1172C36 46.1172 34.9102 44.9395 34.9102 42.9473C34.9102 40.9902 36.0234 39.7246 37.7695 39.7246C39.4102 39.7246 40.541 40.9082 40.541 42.5898C40.541 43 40.3066 43.2344 39.9141 43.2344H36.1875V43.2637C36.1875 44.3887 36.8203 45.0918 37.8281 45.0918C38.5195 45.0918 38.9531 44.8516 39.4219 44.2129C39.5566 44.0547 39.6855 43.9902 39.8672 43.9902C40.1719 43.9902 40.3945 44.1895 40.3945 44.5059C40.3945 44.6055 40.3594 44.7227 40.3066 44.8457C39.9023 45.6543 39.0059 46.1172 37.8574 46.1172ZM36.1934 42.3496H39.2754C39.2461 41.3828 38.6426 40.7441 37.7637 40.7441C36.8906 40.7441 36.2578 41.3887 36.1934 42.3496Z" fill="#8E8E93"/>
</svg>
