<svg width="35" height="49" viewBox="0 0 35 49" fill="none" xmlns="http://www.w3.org/2000/svg">
<path fill-rule="evenodd" clip-rule="evenodd" d="M17.5 31.25C25.0939 31.25 31.25 25.0939 31.25 17.5C31.25 9.90608 25.0939 3.75 17.5 3.75C9.90608 3.75 3.75 9.90608 3.75 17.5C3.75 25.0939 9.90608 31.25 17.5 31.25ZM21.7929 17.5821C22.1834 17.9726 22.8166 17.9726 23.2071 17.5821C23.5976 17.1916 23.5976 16.5584 23.2071 16.1679L18.2071 11.1679C17.8166 10.7774 17.1834 10.7774 16.7929 11.1679L11.7929 16.1679C11.4024 16.5584 11.4024 17.1916 11.7929 17.5821C12.1834 17.9726 12.8166 17.9726 13.2071 17.5821L16.5 14.2892V23.75C16.5 24.3023 16.9477 24.75 17.5 24.75C18.0523 24.75 18.5 24.3023 18.5 23.75V14.2892L21.7929 17.5821Z" fill="#8E8E93"/>
<path d="M7.66211 46.1406C6.02148 46.1406 4.89648 45.4316 4.56836 44.4473C4.52734 44.3184 4.49805 44.1777 4.49805 44.0371C4.49805 43.6562 4.73242 43.4102 5.08984 43.4102C5.38867 43.4102 5.58203 43.5449 5.71094 43.8613C5.97461 44.6523 6.74219 45.0215 7.7207 45.0215C8.79297 45.0215 9.56055 44.4707 9.56055 43.7148C9.56055 43.0586 9.11523 42.6484 7.98438 42.4023L7.05859 42.209C5.37109 41.8516 4.60352 41.0664 4.60352 39.8477C4.60352 38.4004 5.875 37.4043 7.67383 37.4043C9.13281 37.4043 10.2812 38.0898 10.6094 39.2207C10.6387 39.3027 10.6562 39.4023 10.6562 39.5254C10.6562 39.8652 10.416 40.0879 10.0762 40.0879C9.75977 40.0879 9.56641 39.9414 9.43164 39.6367C9.14453 38.8574 8.5 38.5234 7.65625 38.5234C6.66602 38.5234 5.93359 39.0039 5.93359 39.7773C5.93359 40.3926 6.37305 40.8027 7.46875 41.0371L8.38867 41.2305C10.1641 41.6055 10.8906 42.3145 10.8906 43.5449C10.8906 45.1387 9.63672 46.1406 7.66211 46.1406ZM14.5879 46.1172C12.7305 46.1172 11.6406 44.9395 11.6406 42.9473C11.6406 40.9902 12.7539 39.7246 14.5 39.7246C16.1406 39.7246 17.2715 40.9082 17.2715 42.5898C17.2715 43 17.0371 43.2344 16.6445 43.2344H12.918V43.2637C12.918 44.3887 13.5508 45.0918 14.5586 45.0918C15.25 45.0918 15.6836 44.8516 16.1523 44.2129C16.2871 44.0547 16.416 43.9902 16.5977 43.9902C16.9023 43.9902 17.125 44.1895 17.125 44.5059C17.125 44.6055 17.0898 44.7227 17.0371 44.8457C16.6328 45.6543 15.7363 46.1172 14.5879 46.1172ZM12.9238 42.3496H16.0059C15.9766 41.3828 15.373 40.7441 14.4941 40.7441C13.6211 40.7441 12.9883 41.3887 12.9238 42.3496ZM18.8887 46.1113C18.5137 46.1113 18.2559 45.8594 18.2559 45.4434V40.3633C18.2559 39.9766 18.4902 39.7246 18.8594 39.7246C19.2227 39.7246 19.4746 39.9766 19.4746 40.3691V40.8555H19.5039C19.8379 40.1523 20.4824 39.7305 21.4316 39.7305C22.791 39.7305 23.5703 40.5977 23.5703 42.0098V45.4434C23.5703 45.8594 23.3066 46.1113 22.9316 46.1113C22.5625 46.1113 22.2988 45.8594 22.2988 45.4434V42.2559C22.2988 41.3301 21.8652 40.8203 20.9863 40.8203C20.0957 40.8203 19.5215 41.4531 19.5215 42.4082V45.4434C19.5215 45.8594 19.2578 46.1113 18.8887 46.1113ZM27.1094 46.1055C25.5508 46.1055 24.5195 44.8633 24.5195 42.918C24.5195 40.9727 25.5508 39.7363 27.0977 39.7363C27.9824 39.7363 28.6855 40.1816 29.0312 40.8613H29.0547V38.1016C29.0547 37.6855 29.3184 37.4336 29.6934 37.4336C30.0625 37.4336 30.3262 37.6855 30.3262 38.1016V45.4785C30.3262 45.877 30.0684 46.1113 29.6992 46.1113C29.3418 46.1113 29.0547 45.877 29.0547 45.4785V44.9043H29.0371C28.7207 45.625 28.0703 46.1055 27.1094 46.1055ZM27.4434 45.0332C28.416 45.0332 29.0664 44.207 29.0664 42.918C29.0664 41.6406 28.416 40.8027 27.4434 40.8027C26.4414 40.8027 25.8145 41.623 25.8145 42.918C25.8145 44.2188 26.4414 45.0332 27.4434 45.0332Z" fill="#8E8E93"/>
</svg>
