<svg width="35" height="49" viewBox="0 0 35 49" fill="none" xmlns="http://www.w3.org/2000/svg">
<path fill-rule="evenodd" clip-rule="evenodd" d="M32.3234 12.0876L29.7891 6.17432C29.4134 5.29757 29.2255 4.85919 28.9229 4.53739C28.6554 4.25298 28.3251 4.03516 27.9583 3.90137C27.5434 3.75 27.0664 3.75 26.1125 3.75H8.8877C7.93382 3.75 7.45688 3.75 7.0419 3.90137C6.67513 4.03516 6.3448 4.25298 6.07735 4.53739C5.77475 4.85919 5.58687 5.29757 5.21112 6.17432L2.67688 12.0876H32.3234ZM5.50011 19.5609C6.03743 19.7087 6.60328 19.7876 7.1876 19.7876C8.45393 19.7876 9.63464 19.4159 10.6251 18.7772C11.6156 19.4159 12.7963 19.7876 14.0626 19.7876C15.3289 19.7876 16.5096 19.4159 17.5001 18.7772C18.4906 19.4159 19.6713 19.7876 20.9376 19.7876C22.2039 19.7876 23.3846 19.4159 24.3751 18.7772C25.3656 19.4159 26.5463 19.7876 27.8126 19.7876C28.7733 19.7876 29.684 19.5743 30.5001 19.1926V27.25C30.5001 28.6501 30.5001 29.3502 30.2276 29.885C29.9879 30.3554 29.6055 30.7378 29.1351 30.9775C28.6003 31.25 27.9002 31.25 26.5001 31.25H9.50011C8.09998 31.25 7.39991 31.25 6.86513 30.9775C6.39472 30.7378 6.01227 30.3554 5.77259 29.885C5.50011 29.3502 5.50011 28.6501 5.50011 27.25V19.5609ZM7.50006 24.5C7.50006 23.7999 7.50006 23.4499 7.6363 23.1825C7.75614 22.9473 7.94737 22.7561 8.18257 22.6362C8.44996 22.5 8.79999 22.5 9.50006 22.5H14.2501C14.9501 22.5 15.3002 22.5 15.5675 22.6362C15.8028 22.7561 15.994 22.9473 16.1138 23.1825C16.2501 23.4499 16.2501 23.7999 16.2501 24.5V26.75C16.2501 27.4501 16.2501 27.8001 16.1138 28.0675C15.994 28.3027 15.8028 28.4939 15.5675 28.6138C15.3002 28.75 14.9501 28.75 14.2501 28.75H9.50006C8.79999 28.75 8.44996 28.75 8.18257 28.6138C7.94737 28.4939 7.75614 28.3027 7.6363 28.0675C7.50006 27.8001 7.50006 27.4501 7.50006 26.75V24.5ZM7.1875 18.125C4.70368 18.125 2.67106 16.1931 2.51025 13.75H32.4897C32.3289 16.1931 30.2963 18.125 27.8125 18.125C26.4543 18.125 25.2311 17.5474 24.375 16.6244C23.5189 17.5474 22.2957 18.125 20.9375 18.125C19.5793 18.125 18.3561 17.5474 17.5 16.6244C16.6439 17.5474 15.4207 18.125 14.0625 18.125C12.7043 18.125 11.4811 17.5474 10.625 16.6244C9.76891 17.5474 8.54566 18.125 7.1875 18.125Z" fill="#007AFF"/>
<path d="M7.16211 46.1406C5.52148 46.1406 4.39648 45.4316 4.06836 44.4473C4.02734 44.3184 3.99805 44.1777 3.99805 44.0371C3.99805 43.6562 4.23242 43.4102 4.58984 43.4102C4.88867 43.4102 5.08203 43.5449 5.21094 43.8613C5.47461 44.6523 6.24219 45.0215 7.2207 45.0215C8.29297 45.0215 9.06055 44.4707 9.06055 43.7148C9.06055 43.0586 8.61523 42.6484 7.48438 42.4023L6.55859 42.209C4.87109 41.8516 4.10352 41.0664 4.10352 39.8477C4.10352 38.4004 5.375 37.4043 7.17383 37.4043C8.63281 37.4043 9.78125 38.0898 10.1094 39.2207C10.1387 39.3027 10.1562 39.4023 10.1562 39.5254C10.1562 39.8652 9.91602 40.0879 9.57617 40.0879C9.25977 40.0879 9.06641 39.9414 8.93164 39.6367C8.64453 38.8574 8 38.5234 7.15625 38.5234C6.16602 38.5234 5.43359 39.0039 5.43359 39.7773C5.43359 40.3926 5.87305 40.8027 6.96875 41.0371L7.88867 41.2305C9.66406 41.6055 10.3906 42.3145 10.3906 43.5449C10.3906 45.1387 9.13672 46.1406 7.16211 46.1406ZM12.0957 46.1113C11.7266 46.1113 11.4629 45.8594 11.4629 45.4434V38.0898C11.4629 37.6914 11.7031 37.4336 12.0898 37.4336C12.4824 37.4336 12.7168 37.6914 12.7168 38.0898V40.8672H12.7461C13.0859 40.1465 13.7598 39.7305 14.6973 39.7305C16.0508 39.7305 16.8594 40.6328 16.8594 42.0273V45.4434C16.8594 45.8594 16.5957 46.1113 16.2207 46.1113C15.8516 46.1113 15.5879 45.8594 15.5879 45.4434V42.2734C15.5879 41.3652 15.1309 40.8203 14.2402 40.8203C13.3027 40.8203 12.7285 41.4648 12.7285 42.4375V45.4434C12.7285 45.8594 12.4648 46.1113 12.0957 46.1113ZM20.7324 46.1172C18.9688 46.1172 17.8086 44.9043 17.8086 42.918C17.8086 40.9375 18.9746 39.7246 20.7324 39.7246C22.4902 39.7246 23.6562 40.9375 23.6562 42.918C23.6562 44.9043 22.4961 46.1172 20.7324 46.1172ZM20.7324 45.0742C21.7285 45.0742 22.3672 44.2891 22.3672 42.918C22.3672 41.5527 21.7227 40.7676 20.7324 40.7676C19.7422 40.7676 19.0977 41.5527 19.0977 42.918C19.0977 44.2891 19.7422 45.0742 20.7324 45.0742ZM25.2676 48.1855C24.8926 48.1855 24.6348 47.9277 24.6348 47.5117V40.375C24.6348 39.9707 24.8867 39.7246 25.2441 39.7246C25.6016 39.7246 25.8594 39.9707 25.8594 40.375V40.8965H25.8828C26.2461 40.1875 26.9551 39.7363 27.8457 39.7363C29.4102 39.7363 30.4414 40.9668 30.4414 42.918C30.4414 44.8691 29.416 46.1055 27.8691 46.1055C26.9844 46.1055 26.2812 45.6719 25.9297 44.9863H25.9004V47.5117C25.9004 47.9277 25.6367 48.1855 25.2676 48.1855ZM27.5117 45.0332C28.5137 45.0332 29.1406 44.2129 29.1406 42.918C29.1406 41.6289 28.5137 40.8027 27.5117 40.8027C26.5449 40.8027 25.8945 41.6465 25.8945 42.918C25.8945 44.2012 26.5391 45.0332 27.5117 45.0332Z" fill="#007AFF"/>
</svg>
