<svg width="37" height="49" viewBox="0 0 37 49" fill="none" xmlns="http://www.w3.org/2000/svg">
<path fill-rule="evenodd" clip-rule="evenodd" d="M4.75 17.5C4.75 9.90609 10.9061 3.75 18.5 3.75C26.0939 3.75 32.25 9.90609 32.25 17.5C32.25 25.0939 26.0939 31.25 18.5 31.25C10.9061 31.25 4.75 25.0939 4.75 17.5ZM18.5 10.25C19.0523 10.25 19.5 10.6977 19.5 11.25V16.5H24.75C25.3023 16.5 25.75 16.9477 25.75 17.5C25.75 18.0523 25.3023 18.5 24.75 18.5H19.5V23.75C19.5 24.3023 19.0523 24.75 18.5 24.75C17.9477 24.75 17.5 24.3023 17.5 23.75V18.5H12.25C11.6977 18.5 11.25 18.0523 11.25 17.5C11.25 16.9477 11.6977 16.5 12.25 16.5H17.5V11.25C17.5 10.6977 17.9477 10.25 18.5 10.25Z" fill="#8E8E93"/>
<path d="M3.5332 46.0938C3.12305 46.0938 2.87695 45.8359 2.87695 45.4141V38.6816H0.802734C0.439453 38.6816 0.193359 38.459 0.193359 38.1133C0.193359 37.7676 0.439453 37.5449 0.802734 37.5449H6.25781C6.62109 37.5449 6.86719 37.7676 6.86719 38.1133C6.86719 38.459 6.62109 38.6816 6.25781 38.6816H4.18945V45.4141C4.18945 45.8359 3.9375 46.0938 3.5332 46.0938ZM8.83008 46.1172C7.06641 46.1172 5.90625 44.9043 5.90625 42.918C5.90625 40.9375 7.07227 39.7246 8.83008 39.7246C10.5879 39.7246 11.7539 40.9375 11.7539 42.918C11.7539 44.9043 10.5938 46.1172 8.83008 46.1172ZM8.83008 45.0742C9.82617 45.0742 10.4648 44.2891 10.4648 42.918C10.4648 41.5527 9.82031 40.7676 8.83008 40.7676C7.83984 40.7676 7.19531 41.5527 7.19531 42.918C7.19531 44.2891 7.83984 45.0742 8.83008 45.0742ZM13.3652 48.1855C12.9902 48.1855 12.7324 47.9277 12.7324 47.5117V40.375C12.7324 39.9707 12.9844 39.7246 13.3418 39.7246C13.6992 39.7246 13.957 39.9707 13.957 40.375V40.8965H13.9805C14.3438 40.1875 15.0527 39.7363 15.9434 39.7363C17.5078 39.7363 18.5391 40.9668 18.5391 42.918C18.5391 44.8691 17.5137 46.1055 15.9668 46.1055C15.082 46.1055 14.3789 45.6719 14.0273 44.9863H13.998V47.5117C13.998 47.9277 13.7344 48.1855 13.3652 48.1855ZM15.6094 45.0332C16.6113 45.0332 17.2383 44.2129 17.2383 42.918C17.2383 41.6289 16.6113 40.8027 15.6094 40.8027C14.6426 40.8027 13.9922 41.6465 13.9922 42.918C13.9922 44.2012 14.6367 45.0332 15.6094 45.0332ZM25.5293 46.1406C23.4082 46.1406 22.1074 44.8516 22.1074 43.0293V38.1309C22.1074 37.709 22.3535 37.4512 22.7637 37.4512C23.168 37.4512 23.4199 37.709 23.4199 38.1309V42.918C23.4199 44.125 24.1816 44.9746 25.5293 44.9746C26.877 44.9746 27.6445 44.125 27.6445 42.918V38.1309C27.6445 37.709 27.8906 37.4512 28.3008 37.4512C28.7051 37.4512 28.9512 37.709 28.9512 38.1309V43.0293C28.9512 44.8516 27.6504 46.1406 25.5293 46.1406ZM30.9902 48.1855C30.6152 48.1855 30.3574 47.9277 30.3574 47.5117V40.375C30.3574 39.9707 30.6094 39.7246 30.9668 39.7246C31.3242 39.7246 31.582 39.9707 31.582 40.375V40.8965H31.6055C31.9688 40.1875 32.6777 39.7363 33.5684 39.7363C35.1328 39.7363 36.1641 40.9668 36.1641 42.918C36.1641 44.8691 35.1387 46.1055 33.5918 46.1055C32.707 46.1055 32.0039 45.6719 31.6523 44.9863H31.623V47.5117C31.623 47.9277 31.3594 48.1855 30.9902 48.1855ZM33.2344 45.0332C34.2363 45.0332 34.8633 44.2129 34.8633 42.918C34.8633 41.6289 34.2363 40.8027 33.2344 40.8027C32.2676 40.8027 31.6172 41.6465 31.6172 42.918C31.6172 44.2012 32.2617 45.0332 33.2344 45.0332Z" fill="#8E8E93"/>
</svg>
